<?xml version="1.0" standalone="no"?>
<!DOCTYPE svg PUBLIC "-//W3C//DTD SVG 20010904//EN"
 "http://www.w3.org/TR/2001/REC-SVG-20010904/DTD/svg10.dtd">
<svg version="1.0" xmlns="http://www.w3.org/2000/svg"
 width="488.000000pt" height="1011.000000pt" viewBox="0 0 488.000000 1011.000000"
 preserveAspectRatio="xMidYMid meet">

<g transform="translate(0.000000,1011.000000) scale(0.100000,-0.100000)"
fill="#000000" stroke="none">
<path d="M420 10074 c-180 -48 -323 -183 -387 -364 -20 -59 -26 -94 -26 -165
0 -139 31 -239 107 -337 19 -25 812 -974 1762 -2109 950 -1134 1727 -2067
1727 -2073 0 -6 -699 -945 -1554 -2086 -855 -1141 -1563 -2088 -1573 -2103
-37 -60 -68 -161 -73 -247 -11 -162 46 -311 161 -425 143 -141 338 -194 530
-145 91 23 152 55 221 113 33 28 621 806 1754 2317 938 1251 1715 2293 1728
2316 62 109 85 252 63 383 -26 157 75 29 -1990 2496 -1045 1249 -1924 2289
-1952 2313 -62 53 -148 97 -225 117 -72 19 -201 18 -273 -1z"/>
</g>
</svg>
